<?xml version="1.0" encoding="UTF-8" standalone="no"?>
<!-- Created with Inkscape (http://www.inkscape.org/) -->

<svg
   width="512"
   height="512"
   viewBox="0 0 512 512"
   version="1.1"
   id="svg1"
   inkscape:version="1.3.2 (091e20e, 2023-11-25, custom)"
   sodipodi:docname="logo_inkscape.svg"
   inkscape:export-filename="logo.svg"
   inkscape:export-xdpi="24"
   inkscape:export-ydpi="24"
   xmlns:inkscape="http://www.inkscape.org/namespaces/inkscape"
   xmlns:sodipodi="http://sodipodi.sourceforge.net/DTD/sodipodi-0.dtd"
   xmlns="http://www.w3.org/2000/svg"
   xmlns:svg="http://www.w3.org/2000/svg">
  <sodipodi:namedview
     id="namedview1"
     pagecolor="#ffffff"
     bordercolor="#000000"
     borderopacity="0.25"
     inkscape:showpageshadow="2"
     inkscape:pageopacity="0.0"
     inkscape:pagecheckerboard="0"
     inkscape:deskcolor="#d1d1d1"
     inkscape:document-units="px"
     inkscape:zoom="0.79394531"
     inkscape:cx="100.13284"
     inkscape:cy="281.50553"
     inkscape:window-width="1920"
     inkscape:window-height="1009"
     inkscape:window-x="-8"
     inkscape:window-y="-8"
     inkscape:window-maximized="1"
     inkscape:current-layer="layer1" />
  <defs
     id="defs1">
    <rect
       x="107.69004"
       y="110.83887"
       width="129.13797"
       height="148.62565"
       id="rect1" />
  </defs>
  <g
     inkscape:label="Слой 1"
     inkscape:groupmode="layer"
     id="layer1">
    <path
       style="fill:#ff7c35;fill-opacity:1;stroke:none;stroke-width:4.95006;stroke-linecap:round"
       d="M 250.68054,36.56794 C 207.41294,68.080347 115.69043,57.851572 79.156517,94.385481 64.708552,108.83345 147.26655,123.7189 142.66661,129.85215 c -16.82248,22.42997 -61.973293,31.45546 -82.48064,51.96281 -3.530347,3.53035 67.91792,16.48017 56.91164,36.29148 -5.43032,9.77457 -83.815365,71.24823 -74.232573,80.83102 13.194099,13.19411 116.902733,-30.27607 92.378313,-3.29922 -10.08093,11.08903 -96.114407,116.68564 -87.429475,125.37057 2.37306,2.37307 5.430454,-3.95049 8.248064,-5.77365 19.972977,-12.92368 64.964961,-42.06512 89.903891,-42.06512 0.66673,0 -12.17557,26.61045 -23.09458,49.48838 -50.301258,105.39312 -53.911089,93.64195 31.34264,69.28374 7.6606,-2.18875 216.1413,-55.13971 219.45467,-61.76644 0.72344,-1.44688 -51.7611,-10.92603 -53.66858,-11.64133 -28.04328,-10.51623 -62.89175,-25.89933 -79.18142,-51.9628 -41.1538,-65.8461 -45.57887,-198.3493 -10.72248,-268.062079 11.94796,-23.895911 34.82707,-40.69207 52.78762,-56.086822"
       id="path25"
       sodipodi:nodetypes="csssssssssssscssc" />
    <path
       style="fill:#ff7c35;fill-opacity:1;stroke:none;stroke-width:4.95006;stroke-linecap:round"
       d="m 150.46463,149.51067 c -30.75346,-10.41206 -64.927446,-0.61419 -25.07873,-25.66196 9.63534,-6.05649 25.34468,-18.04035 34.99358,-19.24645"
       id="path31" />
    <path
       style="fill:#ff7c35;fill-opacity:1;stroke:none;stroke-width:4.95006;stroke-linecap:round"
       d="m 115.47106,190.3365 c -5.2531,4.66432 -11.15822,8.72002 -16.913561,12.83098 -22.21014,15.86439 -32.111873,22.00817 -26.828404,23.32905 16.685473,4.17136 37.023145,1.39973 54.240035,3.49935 13.02918,1.58892 27.99486,2.84819 27.99486,2.33291 0,-11.92632 -21.25921,-33.86433 -29.16131,-43.74196"
       id="path32" />
    <path
       style="fill:#ff7c35;fill-opacity:1;stroke:none;stroke-width:4.95006;stroke-linecap:round"
       d="m 129.46848,272.54118 c 79.66128,-4.55713 -36.165394,23.34313 -30.910981,39.10636 0.08696,0.26091 60.553521,-0.48121 64.154881,-4.08257 0.80774,-0.80774 -10.04573,-11.61447 -10.49808,-12.24775 -8.00563,-11.20788 -14.62168,-22.92102 -23.91226,-33.2439"
       id="path33" />
    <path
       style="fill:#ff7c35;fill-opacity:1;stroke:none;stroke-width:4.95006;stroke-linecap:round"
       d="m 139.96656,351.89015 c -14.86108,-2.33255 -59.783815,71.44655 -29.16131,58.32262 15.38742,-6.5946 29.76461,-11.9946 46.07487,-16.91356 7.32691,-2.20969 29.11876,-5.20648 35.57679,-11.66453 2.52732,-2.5273 -6.90834,-2.14982 -9.91484,-4.08257 -12.20835,-7.84823 -23.3484,-19.66215 -34.99357,-26.82841"
       id="path34" />
    <path
       style="fill:#ff7c35;fill-opacity:1;stroke:none;stroke-width:4.95006;stroke-linecap:round"
       d="m 142.66661,129.85215 c 36.28689,7.51589 26.93506,80.57176 59.38606,82.48064 22.76987,1.33941 13.60922,-32.99225 39.84194,-32.99225"
       id="path35" />
    <path
       style="fill:#ffb235;fill-opacity:1;stroke:none;stroke-width:4.95006;stroke-linecap:round"
       d="m 218.97029,62.877764 c -36.31008,8.28997 -98.81641,23.352867 -125.807633,31.663837 -4.919323,1.51473 10.797903,5.14723 15.747103,6.561289 8.76215,2.50347 42.51544,-0.0344 46.22068,11.0813 2.55257,7.65773 -21.38082,17.88146 -25.66196,22.1626 -2.9811,2.98111 22.15831,-4.22088 15.74712,6.99871 -10.76463,18.83809 -33.17942,23.84779 -47.824553,38.49294 -2.637223,2.63721 17.490873,-6.42141 27.994853,4.08257 8.12371,8.12372 -14.58065,22.4505 -14.58065,26.24518 0,6.57716 40.14297,-6.55437 12.83097,29.16131 -10.58089,13.83654 -20.19729,23.80447 -35.576793,31.49421 -2.543507,1.27176 -18.222996,16.77058 -18.080011,16.91356 4.307371,4.30738 77.665814,-38.78595 83.984574,-19.82969 10.26465,30.79397 -21.57938,33.4183 -21.57938,34.99357 0,7.26372 18.29847,-0.91192 20.99616,5.83226 6.01161,15.02906 -23.88852,31.69899 -31.49422,40.82583 -2.14828,2.57793 -27.411634,25.21779 -27.411634,25.66196 0,1.22368 43.791994,-17.44676 51.323904,-9.91484 6.10998,6.10998 -24.41297,27.49416 -20.99614,30.91099 2.21472,2.21472 29.43885,-15.77526 33.24389,-8.16517 11.68445,23.36891 -23.98784,63.32315 -32.36905,84.27618 -0.5513,1.37825 -5.31555,11.59801 -3.79097,13.12258 0.29633,0.29635 13.37181,-6.94966 13.98884,-7.39038 12.21702,-8.72645 20.77614,-15.56384 35.58538,-18.85479 41.18037,-9.15119 90.91234,-17.23512 129.47622,-32.66067 7.97698,-3.19078 -20.90242,-24.98499 -27.41164,-31.49421 -24.23579,-24.23579 -28.16674,-52.42281 -38.49292,-83.40135 -9.57965,-28.73892 -12.44621,-153.86034 -4.08259,-183.13301 5.16508,-18.07781 6.41675,-37.619999 16.33034,-52.490354 1.67218,-2.508277 0,0 5.24903,-9.331629"
       id="path36"
       sodipodi:nodetypes="csssssssssscsssssssssssssssssc" />
    <path
       style="fill:#ffe55d;fill-opacity:1;stroke:none;stroke-width:4.95006;stroke-linecap:round"
       d="m 200.51558,90.417371 c 3.90426,-3.3175 -11.31236,2.41397 -14.95904,3.14331 -34.79293,6.958579 -4.13353,2.45542 4.12403,18.970539 0.27628,0.55255 -24.22157,2.254 -30.51783,14.84651 -0.84683,1.69367 18.52219,7.87163 13.1969,13.19692 -8.47958,8.47957 -20.88636,17.85332 -26.39381,28.86822 -2.9226,5.8452 15.22315,1.57805 18.14575,7.42325 5.55317,11.10637 -16.3055,17.76446 -19.79536,24.74419 -2.70781,5.41561 17.38032,6.50938 14.0217,11.54729 -7.36948,11.05424 -17.53918,20.83841 -26.3938,29.69304 -3.89302,3.89302 11.00006,-0.50151 16.49613,-0.82481 1.53219,-0.0901 14.84652,-0.75019 14.84652,-0.82482 0,-7.70309 -13.52364,7.75 -18.97055,13.19691 -6.53514,6.53515 19.03386,4.18735 25.569,10.72249 6.02435,6.02434 -4.95281,25.57695 -7.42325,30.51783 -0.93436,1.8687 9.17854,-1.33258 9.89767,0.82481 1.51324,4.53972 -0.34153,11.74706 -1.64961,15.67132 -1.08713,3.26139 -33.28843,33.52088 -31.34265,35.46668 3.20627,3.20627 8.75061,-2.40997 13.1969,-3.29923 33.65359,-6.73072 1.64961,13.86962 1.64961,30.51783 0,9.63844 27.28368,-7.85768 28.86823,1.64962 3.45814,20.74878 -23.09457,40.3327 -23.09457,59.38605 0,9.61881 16.91703,-9.25569 24.74419,-14.84651 13.32309,-9.51649 52.85281,-10.00637 60.21087,-22.26977 8.18687,-13.64479 -35.3512,-113.87275 -41.24033,-139.39228 -11.77949,-51.04447 -0.8115,-109.75243 11.54729,-159.18763 1.70006,-6.800219 9.66224,-16.323479 4.12403,-20.620158 -2.78753,-2.162633 -5.77531,-4.054027 -8.66296,-6.081027"
       id="path37" />
    <path
       style="font-size:96px;font-family:Bahnschrift;-inkscape-font-specification:'Bahnschrift, Normal';white-space:pre;display:inline;fill:#ff7c35;fill-opacity:1;stroke-width:22.8519;stroke-linecap:round"
       d="m 326.06976,437.88792 c -28.53074,0 -53.66048,-6.32968 -75.38922,-18.98904 -21.53977,-12.65932 -38.26143,-30.60913 -50.16496,-53.84943 -11.90359,-23.24026 -17.85537,-50.16498 -17.85537,-80.77412 V 171.19149 c 0,-30.60915 5.95178,-57.53386 17.85537,-80.774119 11.90353,-23.2403 28.62519,-41.19011 50.16496,-53.849431 21.72874,-12.848285 46.85848,-19.272431 75.38922,-19.272431 23.61819,0 45.34689,5.101524 65.18615,15.30457 19.83928,10.014089 36.37202,24.279458 49.59819,42.796108 13.41511,18.516634 34.14586,51.352013 27.20813,64.335933 -6.75675,12.64521 -52.21408,8.17999 -58.44585,1.31809 -6.23176,-6.86191 -10.34054,-25.26848 -18.92731,-35.61172 -8.02947,-9.671929 -18.13876,-18.044269 -29.47548,-23.523669 -11.33672,-5.479438 -23.05134,-8.219152 -35.14383,-8.219152 -16.81612,0 -31.55386,4.062343 -44.21322,12.187012 -12.65932,8.12462 -22.48449,19.555809 -29.47548,34.293549 -6.99097,14.54882 -10.48645,31.55391 -10.48645,51.01526 v 113.08384 c 0,19.27243 3.49548,36.27751 10.48645,51.01525 6.99099,14.73774 16.81616,26.16892 29.47548,34.29356 12.65936,7.93571 27.3971,11.90356 44.21322,11.90356 12.28146,0 23.99608,-2.55075 35.14383,-7.65227 11.33672,-5.10154 21.56088,-13.13334 29.47548,-22.67343 8.52459,-10.27538 12.4544,-31.41282 18.13876,-35.71069 4.13173,-3.12394 53.50267,-10.1334 59.2344,0 5.73173,10.13341 -27.20813,64.33588 -27.20813,64.33588 -13.41514,18.51664 -30.04233,32.87649 -49.88159,43.07954 -19.83927,10.01413 -41.47353,15.02119 -64.90275,15.02119 z"
       id="text1"
       aria-label="C"
       sodipodi:nodetypes="scsssccsccszassscssscscaszccs" />
  </g>
</svg>
