<?xml version="1.0" encoding="UTF-8" standalone="no"?>
<!-- Created with Inkscape (http://www.inkscape.org/) -->

<svg
   width="446.36963mm"
   height="149.04797mm"
   viewBox="0 0 446.36963 149.04797"
   version="1.1"
   id="svg1"
   xmlns="http://www.w3.org/2000/svg"
   xmlns:svg="http://www.w3.org/2000/svg">
  <defs
     id="defs1" />
  <g
     id="layer1">
    <path
       style="fill:#ff7c35;fill-opacity:1;stroke:none;stroke-width:1.3097;stroke-linecap:round"
       d="m 67.469231,17.973657 c -11.44789,8.337658 -35.716133,5.631295 -45.382397,15.297558 -3.822691,3.822692 18.020777,7.761138 16.803707,9.383888 -4.450943,5.9346 -16.397095,8.32259 -21.822998,13.74849 -0.934071,0.93408 17.96995,4.36038 15.057872,9.60213 -1.436773,2.58618 -22.1761493,18.85109 -19.640702,21.38654 3.490939,3.49094 30.930518,-8.01055 24.441758,-0.87292 -2.667242,2.93397 -25.430266,30.873067 -23.132378,33.170957 0.627872,0.62787 1.436808,-1.04523 2.182301,-1.52761 5.284516,-3.41939 17.188645,-11.12973 23.787067,-11.12973 0.17641,0 -3.22145,7.04068 -6.110438,13.0938 -13.308874,27.88526 -14.263975,24.7761 8.292738,18.33132 2.02687,-0.5791 57.18739,-14.58905 58.064049,-16.34237 0.19141,-0.38282 -13.695119,-2.89084 -14.199809,-3.0801 -7.41979,-2.78242 -16.64011,-6.85253 -20.95009,-13.74849 -10.8886,-17.421777 -12.0594,-52.479917 -2.83698,-70.924756 3.16123,-6.322459 9.21466,-10.766443 13.96672,-14.839638"
       id="path25" />
    <path
       style="fill:#ff7c35;fill-opacity:1;stroke:none;stroke-width:1.3097;stroke-linecap:round"
       d="m 40.953771,47.856423 c -8.136852,-2.75486 -17.178719,-0.16251 -6.635413,-6.78973 2.549353,-1.60245 6.705783,-4.773175 9.258713,-5.092289"
       id="path31" />
    <path
       style="fill:#ff7c35;fill-opacity:1;stroke:none;stroke-width:1.3097;stroke-linecap:round"
       d="m 31.695057,58.658253 c -1.389883,1.2341 -2.952279,2.30717 -4.475047,3.39487 -5.876433,4.19745 -8.496266,5.82299 -7.098348,6.17247 4.414698,1.10368 9.795707,0.37035 14.351009,0.92587 3.4473,0.4204 7.40697,0.75359 7.40697,0.61725 0,-3.1555 -5.62483,-8.95994 -7.715593,-11.57339"
       id="path32" />
    <path
       style="fill:#ff7c35;fill-opacity:1;stroke:none;stroke-width:1.3097;stroke-linecap:round"
       d="m 35.398541,80.408243 c 21.07705,-1.20574 -9.568761,6.1762 -8.178531,10.34689 0.02301,0.069 16.021451,-0.12732 16.974311,-1.08018 0.21372,-0.21371 -2.65793,-3.07299 -2.77762,-3.24055 -2.11815,-2.96542 -3.86865,-6.06452 -6.326781,-8.79578"
       id="path33" />
    <path
       style="fill:#ff7c35;fill-opacity:1;stroke:none;stroke-width:1.3097;stroke-linecap:round"
       d="m 38.176161,101.40265 c -3.931998,-0.61715 -15.817804,18.90357 -7.7156,15.4312 4.071255,-1.74482 7.87522,-3.17357 12.19064,-4.47505 1.93858,-0.58465 7.70434,-1.37755 9.41303,-3.08624 0.66868,-0.66868 -1.82783,-0.56881 -2.6233,-1.08018 -3.23013,-2.07651 -6.1776,-5.20228 -9.25872,-7.09835"
       id="path34" />
    <path
       style="fill:#ff7c35;fill-opacity:1;stroke:none;stroke-width:1.3097;stroke-linecap:round"
       d="m 38.890541,42.655103 c 9.60091,1.98858 7.12657,21.31795 15.71257,21.823 6.02452,0.35439 3.60077,-8.7292 10.54151,-8.7292"
       id="path35" />
    <path
       style="fill:#ffb235;fill-opacity:1;stroke:none;stroke-width:1.3097;stroke-linecap:round"
       d="m 59.079231,24.934798 c -9.60705,2.193388 -26.145178,6.178779 -33.286606,8.377724 -1.301571,0.400772 2.856945,1.361871 4.166421,1.736007 2.318319,0.662377 11.248875,-0.0091 12.229225,2.931928 0.67536,2.026106 -5.65701,4.731136 -6.78973,5.863856 -0.78875,0.78875 5.86272,-1.11678 4.16643,1.85174 -2.84815,4.98424 -8.778726,6.30973 -12.653584,10.18459 -0.697766,0.69776 4.627793,-1.699 7.406971,1.08018 2.149403,2.1494 -3.857797,5.94003 -3.857797,6.94404 0,1.7402 10.62116,-1.73418 3.394861,7.71559 -2.799527,3.66092 -5.343866,6.29827 -9.413027,8.33285 -0.672969,0.33648 -4.821501,4.43721 -4.783669,4.47504 1.139658,1.13966 20.549075,-10.26211 22.220915,-5.2466 2.71586,8.14757 -5.70954,8.84192 -5.70954,9.25871 0,1.92186 4.84147,-0.24128 5.55523,1.54312 1.59057,3.97644 -6.320501,8.38703 -8.332843,10.801837 -0.568399,0.68207 -7.252661,6.6722 -7.252661,6.78972 0,0.32377 11.586634,-4.61612 13.579454,-2.6233 1.61659,1.6166 -6.45927,7.2745 -5.555233,8.17853 0.585978,0.58598 7.789033,-4.17387 8.795783,-2.16036 3.09151,6.18302 -6.34679,16.75425 -8.564315,22.29807 -0.145865,0.36466 -1.406406,3.06864 -1.003028,3.47201 0.0784,0.0784 3.537963,-1.83876 3.701213,-1.95537 3.23242,-2.30887 5.49702,-4.11793 9.4153,-4.98866 10.89564,-2.42125 24.05389,-4.56013 34.25725,-8.64147 2.11057,-0.84423 -5.53043,-6.61061 -7.25266,-8.33284 -6.41239,-6.41239 -7.45245,-13.870197 -10.18459,-22.066607 -2.53461,-7.60384 -3.29306,-40.70888 -1.08018,-48.45394 1.36659,-4.783088 1.69776,-9.953625 4.32073,-13.888073 0.44243,-0.663649 0,0 1.38881,-2.468994"
       id="path36" />
    <path
       style="fill:#ffe55d;fill-opacity:1;stroke:none;stroke-width:1.3097;stroke-linecap:round"
       d="m 54.196421,32.221319 c 1.033,-0.877755 -2.99306,0.638696 -3.95791,0.831668 -9.20563,1.841124 -1.09367,0.649663 1.09114,5.019288 0.0731,0.146195 -6.40862,0.596368 -8.0745,3.928138 -0.22406,0.44812 4.90066,2.0827 3.49168,3.49169 -2.24356,2.24355 -5.52619,4.72369 -6.98337,7.63805 -0.77327,1.54654 4.0278,0.41752 4.80107,1.96406 1.46927,2.93856 -4.31417,4.70018 -5.23753,6.5469 -0.71644,1.43288 4.59855,1.72228 3.70991,3.05522 -1.94984,2.92477 -4.64057,5.5135 -6.983357,7.85629 -1.030029,1.03003 2.910437,-0.13269 4.364597,-0.21823 0.4054,-0.0238 3.92815,-0.19849 3.92815,-0.21824 0,-2.03811 -3.57813,2.05052 -5.0193,3.49169 -1.72909,1.72909 5.03605,1.1079 6.76514,2.83699 1.59394,1.59394 -1.31044,6.76723 -1.96407,8.07451 -0.24722,0.49442 2.42849,-0.35258 2.61876,0.21823 0.40037,1.20113 -0.0904,3.10807 -0.43646,4.14637 -0.28764,0.86291 -8.80757,8.86906 -8.29275,9.383887 0.84833,0.84833 2.31527,-0.637637 3.49168,-0.872917 8.90418,-1.78084 0.43646,3.669667 0.43646,8.074507 0,2.55017 7.21881,-2.07901 7.63805,0.43646 0.91497,5.48978 -6.11043,10.67136 -6.11043,15.71256 0,2.54498 4.47596,-2.4489 6.5469,-3.92814 3.52506,-2.5179 13.98397,-2.64752 15.93079,-5.89221 2.16611,-3.61018 -9.35334,-30.128827 -10.9115,-36.880867 -3.11666,-13.50552 -0.21471,-29.03867 3.05522,-42.118397 0.4498,-1.799224 2.55646,-4.31892 1.09115,-5.45575 -0.73754,-0.572197 -1.52806,-1.072628 -2.29208,-1.608938"
       id="path37" />
    <path
       style="font-size:96px;font-family:Bahnschrift;-inkscape-font-specification:'Bahnschrift, Normal';white-space:pre;display:inline;fill:#ff7c35;fill-opacity:1;stroke-width:6.04623;stroke-linecap:round"
       d="m 87.415961,124.15623 c -7.54876,0 -14.19767,-1.67473 -19.94673,-5.02418 -5.69906,-3.34945 -10.12334,-8.09867 -13.27281,-14.24766 -3.14949,-6.148987 -4.72424,-13.272817 -4.72424,-21.371487 v -29.9201 c 0,-8.09867 1.57475,-15.2225 4.72424,-21.371484 3.14947,-6.148996 7.57375,-10.898216 13.27281,-14.247662 5.74906,-3.399442 12.39797,-5.099164 19.94673,-5.099164 6.24898,0 11.99803,1.349779 17.247169,4.049334 5.24914,2.649561 9.62343,6.42394 13.12285,11.323137 3.54942,4.899193 9.03443,13.586889 7.19882,17.022219 -1.78772,3.34571 -13.81497,2.16429 -15.4638,0.34874 -1.64882,-1.81555 -2.73593,-6.68562 -5.00785,-9.422266 -2.12446,-2.559031 -4.799209,-4.774213 -7.798719,-6.223971 -2.9995,-1.449768 -6.099,-2.17465 -9.29847,-2.17465 -4.44926,0 -8.34862,1.074828 -11.69808,3.22448 -3.34945,2.149639 -5.94902,5.174141 -7.79872,9.073497 -1.84969,3.84938 -2.77454,8.34864 -2.77454,13.49779 v 29.9201 c 0,5.09916 0.92485,9.59842 2.77454,13.49779 1.8497,3.899357 4.44927,6.923857 7.79872,9.073497 3.34946,2.09966 7.24882,3.14948 11.69808,3.14948 3.24947,0 6.34896,-0.67488 9.29847,-2.02466 2.99951,-1.34978 5.704649,-3.47486 7.798719,-5.99901 2.25547,-2.718697 3.29523,-8.311307 4.79922,-9.448447 1.09318,-0.82655 14.15591,-2.68113 15.67243,0 1.51652,2.68113 -7.19882,17.022197 -7.19882,17.022197 -3.54942,4.89919 -7.9487,8.69857 -13.19783,11.39812 -5.249139,2.64958 -10.973209,3.97436 -17.172189,3.97436 z"
       id="text1"
       aria-label="C" />
    <text
       xml:space="preserve"
       style="font-size:117.259px;font-family:Bahnschrift;-inkscape-font-specification:'Bahnschrift, Normal';fill:#ff7c35;fill-opacity:1;stroke-width:1;stroke-linecap:round"
       x="125.35084"
       y="124.15623"
       id="text2"><tspan
         id="tspan1"
         style="fill:#ff7c35;fill-opacity:1;stroke-width:1"
         x="125.35084"
         y="124.15623">elerio</tspan></text>
  </g>
</svg>
